<svg width="512" height="512" viewBox="0 0 512 512" fill="none" xmlns="http://www.w3.org/2000/svg">
  <rect width="512" height="512" rx="128" fill="#081C15"/>
  <path d="M256 68L392 116V232C392 322.816 333.008 406.85 256 442C178.992 406.85 120 322.816 120 232V116L256 68Z" fill="#0B2D22"/>
  <path d="M256 100L364 138.235V231.188C364 304.26 318.411 372.343 256 402C193.591 372.343 148 304.26 148 231.188V138.235L256 100Z" fill="#163F31"/>
  <path d="M255.317 174C217.036 174 186 205.036 186 243.317C186 293.636 255.317 354 255.317 354C255.317 354 324.636 293.636 324.636 243.317C324.636 205.036 293.6 174 255.317 174Z" fill="#D8F3DC"/>
  <circle cx="255.317" cy="243.318" r="25.3182" fill="#1B4332"/>
  <path d="M226 148C235.14 134.04 248.994 127.06 267.562 127.06C286.131 127.06 299.986 134.04 309.126 148" stroke="#95D5B2" stroke-width="18" stroke-linecap="round"/>
  <path d="M170 375C192.389 358.656 220.715 350.484 254.977 350.484C289.241 350.484 317.582 358.656 340 375" stroke="#52B788" stroke-width="18" stroke-linecap="round"/>
</svg>
