<svg width="256" height="256" viewBox="0 0 256 256" fill="none" xmlns="http://www.w3.org/2000/svg">
  <rect width="256" height="256" rx="64" fill="#081C15"/>
  <path d="M128 34L196 58V116C196 161.408 166.504 203.425 128 221C89.4961 203.425 60 161.408 60 116V58L128 34Z" fill="#0B2D22"/>
  <path d="M128 50L182 69.1176V115.594C182 152.13 159.205 186.171 128 201C96.7954 186.171 74 152.13 74 115.594V69.1176L128 50Z" fill="#163F31"/>
  <path d="M127.659 87C108.518 87 93 102.518 93 121.659C93 146.818 127.659 177 127.659 177C127.659 177 162.318 146.818 162.318 121.659C162.318 102.518 146.801 87 127.659 87Z" fill="#D8F3DC"/>
  <circle cx="127.66" cy="121.66" r="12.66" fill="#1B4332"/>
  <path d="M113 74C117.57 67.0198 124.497 63.5298 133.781 63.5298C143.066 63.5298 149.993 67.0198 154.563 74" stroke="#95D5B2" stroke-width="10" stroke-linecap="round"/>
  <path d="M85 188C96.1945 179.828 110.357 175.742 127.489 175.742C144.621 175.742 158.791 179.828 170 188" stroke="#52B788" stroke-width="10" stroke-linecap="round"/>
</svg>
